<svg width="158" height="158" viewBox="0 0 158 158" fill="none" xmlns="http://www.w3.org/2000/svg">
<path d="M79.1034 0.131042H78.7446C35.3306 0.131042 0.136597 35.3354 0.136597 78.7622V79.1211C0.136597 122.548 35.3306 157.752 78.7446 157.752H79.1034C122.517 157.752 157.711 122.548 157.711 79.1211V78.7622C157.711 35.3354 122.517 0.131042 79.1034 0.131042Z" fill="#1E1E1E"/>
<path d="M103.306 32.1987L54.5477 32.1987C41.0774 32.1987 30.119 43.1603 30.119 56.6346L30.119 101.254C30.119 114.728 41.0774 125.69 54.5477 125.69H103.306C116.776 125.69 127.734 114.728 127.734 101.254V56.6346C127.734 43.1603 116.776 32.1987 103.306 32.1987ZM38.7367 56.6346C38.7367 47.915 45.8306 40.8189 54.5477 40.8189H103.306C112.023 40.8189 119.117 47.915 119.117 56.6346V101.254C119.117 109.974 112.023 117.07 103.306 117.07H54.5477C45.8306 117.07 38.7367 109.974 38.7367 101.254V56.6346Z" fill="white"/>
<path d="M78.9269 101.668C91.4531 101.668 101.65 91.4743 101.65 78.9389C101.65 66.4034 91.4587 56.2094 78.9269 56.2094C66.3951 56.2094 56.204 66.4034 56.204 78.9389C56.204 91.4743 66.3951 101.668 78.9269 101.668ZM78.9269 64.8351C86.7054 64.8351 93.032 71.1636 93.032 78.9444C93.032 86.7252 86.7054 93.0537 78.9269 93.0537C71.1483 93.0537 64.8217 86.7252 64.8217 78.9444C64.8217 71.1636 71.1483 64.8351 78.9269 64.8351Z" fill="white"/>
<path d="M103.753 59.8816C107.126 59.8816 109.875 57.1371 109.875 53.7575C109.875 50.3779 107.132 47.6333 103.753 47.6333C100.374 47.6333 97.6307 50.3779 97.6307 53.7575C97.6307 57.1371 100.374 59.8816 103.753 59.8816Z" fill="white"/>
</svg>
