<svg width="159" height="159" viewBox="0 0 159 159" fill="none" xmlns="http://www.w3.org/2000/svg">
<path d="M79.8946 0.92749H79.5357C36.1218 0.92749 0.927765 36.1319 0.927765 79.5586V79.9175C0.927765 123.344 36.1218 158.549 79.5357 158.549H79.8946C123.309 158.549 158.503 123.344 158.503 79.9175V79.5586C158.503 36.1319 123.309 0.92749 79.8946 0.92749Z" fill="#1E1E1E"/>
<path d="M117.805 57.9501V72.8325C115.204 72.5785 111.826 71.9877 108.088 70.6181C103.208 68.8289 99.5755 66.3826 97.1961 64.4884V94.5681L97.1354 94.4742C97.174 95.0706 97.1961 95.6781 97.1961 96.291C97.1961 111.229 85.0453 123.389 70.1065 123.389C55.1677 123.389 43.0168 111.229 43.0168 96.291C43.0168 81.3534 55.1677 69.1879 70.1065 69.1879C71.5694 69.1879 73.0048 69.3038 74.4071 69.5303V84.1973C73.06 83.7169 71.6136 83.4574 70.1065 83.4574C63.0346 83.4574 57.2766 89.2115 57.2766 96.291C57.2766 103.371 63.0346 109.125 70.1065 109.125C77.1784 109.125 82.9364 103.365 82.9364 96.291C82.9364 96.026 82.9309 95.7609 82.9143 95.4958V37.0429H97.7813C97.8365 38.302 97.8862 39.5721 97.9414 40.8312C98.0408 43.3107 98.9241 45.6907 100.464 47.6401C102.27 49.9318 104.936 52.5935 108.679 54.7196C112.185 56.7021 115.475 57.558 117.805 57.9612V57.9501Z" fill="white"/>
</svg>
